<svg width="12" height="12" viewBox="0 0 12 12" fill="none" xmlns="http://www.w3.org/2000/svg">
  <g clip-path="url(#clip0_1_498)">
    <path d="M0.721267 7.98521C0.770368 7.99318 0.820059 7.99686 0.869777 7.99621L9.33554 7.99621L9.15094 8.08207C8.9705 8.16748 8.80635 8.28371 8.66583 8.42551L6.29182 10.7995C5.97916 11.098 5.92662 11.5781 6.16733 11.9372C6.44747 12.3197 6.98471 12.4028 7.36732 12.1227C7.39823 12.1 7.42761 12.0753 7.45522 12.0488L11.7482 7.75581C12.0837 7.42069 12.084 6.87706 11.7489 6.54157C11.7486 6.54135 11.7484 6.54111 11.7482 6.5409L7.45522 2.24793C7.11945 1.9131 6.57583 1.91385 6.24098 2.24962C6.21463 2.27605 6.19002 2.30417 6.16733 2.33379C5.92662 2.69281 5.97916 3.17296 6.29182 3.47142L8.66154 5.84973C8.78751 5.97583 8.93235 6.08158 9.09084 6.16312L9.34841 6.27903L0.917026 6.27903C0.478418 6.26274 0.0936079 6.56912 0.0112095 7.00024C-0.0646954 7.46831 0.2532 7.90928 0.721267 7.98521Z" fill="white" />
  </g>
  <defs>
    <clipPath id="clip0_1_498">
      <rect width="12" height="12" fill="white" transform="matrix(-1 0 0 -1 12 12)" />
    </clipPath>
  </defs>
</svg>