<svg width="1438" height="799" viewBox="0 0 1438 799" fill="none" xmlns="http://www.w3.org/2000/svg">
<path d="M1231.41 454.601C1296.52 515.335 1386.29 519.871 1438 511.351V799H396V590.195C406.027 590.195 423.299 586.093 440.217 590.195C477.876 599.324 522.358 668.837 560.126 677.307C652.152 697.948 748.526 549.595 748.526 549.595C748.526 549.595 816.343 462.616 862.291 409.842C907.218 358.241 949.735 329 1041.27 329C1115.2 329 1186.2 412.422 1231.41 454.601Z" fill="#FFFAF4"/>
<path d="M285.099 398.545C195.248 469.164 71.3581 474.438 0 464.532V799H1438V556.208C1424.16 556.208 1400.33 551.439 1376.98 556.208C1325.01 566.824 1263.62 647.65 1211.5 657.5C1084.5 681.5 951.5 509 951.5 509C951.5 509 857.91 407.864 794.5 346.5C732.5 286.5 673.824 252.5 547.5 252.5C445.478 252.5 347.5 349.5 285.099 398.545Z" fill="#FDF6EE"/>
<path d="M390 1C418.419 32.5504 492.606 94.1487 562.008 88.1391C648.759 80.6271 708 56 782.377 79.1247C828.677 93.5199 824.257 138.219 866.137 170.771C908.017 203.323 1090.49 124.197 1090.49 124.197C1090.49 124.197 1219.13 66.6047 1231.59 124.197C1244.06 181.789 1192.7 250.398 1216.14 264.421C1234.88 275.638 1371.86 224.357 1438 197.313" stroke="#E17A0E" stroke-opacity="0.24"/>
<path d="M880.467 226.936C879.928 224.69 882.022 222.703 884.236 223.359L890.879 225.327C893.093 225.984 893.767 228.791 892.092 230.38L887.066 235.149C885.39 236.738 882.623 235.918 882.084 233.673L880.467 226.936Z" fill="#A6EC9A"/>
<circle cx="583.5" cy="183.5" r="4.5" fill="#FFD6D6"/>
<rect x="749.651" y="161.522" width="45.7199" height="45.7199" rx="10" transform="rotate(-35.9958 749.651 161.522)" fill="#0CBE64"/>
</svg>
